<svg viewBox="0 0 24 24" xmlns="http://www.w3.org/2000/svg" ><path d="M22 3H2C0.9 3 0 3.9 0 5v14c0 1.1 0.9 2 2 2h20c1.1 0 2-0.9 2-2V5C24 3.9 23.1 3 22 3z" style="fill:#F2F2F2;"/><path d="M3 21h19c1.1 0 2-0.9 2-2V5.1L3 21z" style="fill:#F5F5F5;"/><linearGradient gradientUnits="userSpaceOnUse" x1="7.9" x2="19.2" y1="10.5" y2="15.7" ><stop offset="0" style="stop-color:#FFF;stop-opacity:0.2;"/><stop offset="1" style="stop-color:#FFF;stop-opacity:0;"/></linearGradient><polygon points="3 21 3.3 21 24 5.4 24 5.1 " style="fill:url(#SVGID_1_);"/><path d="M0 5.1V19c0 1.1 0.9 2 2 2h1V7.3C1.3 6.1 0.9 5.8 0 5.1z" style="fill:#D32F2F;"/><path d="M21 7.3V21h1c1.1 0 2-0.9 2-2V5.1L21 7.3z" style="fill:#D32F2F;"/><linearGradient gradientUnits="userSpaceOnUse" x1="18.9" x2="26.6" y1="9.5" y2="17.2" ><stop offset="0" style="stop-color:#000;stop-opacity:0.1;"/><stop offset="1" style="stop-color:#000;stop-opacity:0;"/></linearGradient><path d="M21 7.3V21h1c1.1 0 2-0.9 2-2V5.1L21 7.3z" style="fill:url(#SVGID_2_);"/><polygon points="21.5 3 2.5 3 12 10.3 " style="fill:#F5F5F5;"/><path d="M24 5.1V5c0-1.1-0.9-2-2-2h-0.5L12 10.3 2.5 3H2C0.9 3 0 3.9 0 5v0.1l12 9.1L24 5.1z" style="fill:#D32F2F;"/><linearGradient gradientUnits="userSpaceOnUse" x1="1.5" x2="21.5" y1="1.3" y2="10.6" ><stop offset="0" style="stop-color:#FFF;stop-opacity:0.1;"/><stop offset="1" style="stop-color:#FFF;stop-opacity:0;"/></linearGradient><path d="M24 5.1V5c0-1.1-0.9-2-2-2h-0.5L12 10.3 2.5 3H2C0.9 3 0 3.9 0 5v0.1l12 9.1L24 5.1z" style="fill:url(#SVGID_3_);"/><path d="M12 13.9L0 4.9C0 4.9 0 5 0 5v0.1l12 9.1 12-9.1V5c0 0 0-0.1 0-0.1L12 13.9z" style="opacity:0.1;"/><path d="M22 20.8H2c-1.1 0-2-0.9-2-2V19c0 1.1 0.9 2 2 2h20c1.1 0 2-0.9 2-2v-0.2C24 19.9 23.1 20.8 22 20.8z" style="opacity:0.1;"/><linearGradient gradientUnits="userSpaceOnUse" x1="23.7" x2="24" y1="4.2" y2="4.4" ><stop offset="0" style="stop-color:#000;stop-opacity:0.1;"/><stop offset="1" style="stop-color:#000;stop-opacity:0;"/></linearGradient><path d="M23.8 4.1L23.8 4.1c0.1 0.1 0.1 0.3 0.2 0.4C23.9 4.4 23.8 4.2 23.8 4.1z" style="fill:url(#SVGID_4_);"/><linearGradient gradientUnits="userSpaceOnUse" x1="23.8" x2="24.1" y1="4.6" y2="4.9" ><stop offset="0" style="stop-color:#000;stop-opacity:0.1;"/><stop offset="1" style="stop-color:#000;stop-opacity:0;"/></linearGradient><path d="M23.9 4.5C24 4.7 24 4.8 24 5 24 4.8 24 4.7 23.9 4.5z" style="fill:url(#SVGID_5_);"/><linearGradient gradientUnits="userSpaceOnUse" x1="6.5" x2="25.4" y1="-0.4" y2="18.4" ><stop offset="0" style="stop-color:#000;stop-opacity:0.1;"/><stop offset="1" style="stop-color:#000;stop-opacity:0;"/></linearGradient><path d="M0.5 5.5L16 21h6c1.1 0 2-0.9 2-2V5.1l-12 9.1L0.5 5.5z" style="fill:url(#SVGID_6_);"/><path d="M22 3H2C0.9 3 0 3.9 0 5v0.3c0-1.1 0.9-2 2-2h20c1.1 0 2 0.9 2 2V5C24 3.9 23.1 3 22 3z" style="fill:#FFF;opacity:0.2;"/><linearGradient gradientUnits="userSpaceOnUse" x1="-0.7" x2="24.7" y1="6.1" y2="17.9" ><stop offset="0" style="stop-color:#FFF;stop-opacity:0.1;"/><stop offset="1" style="stop-color:#FFF;stop-opacity:0;"/></linearGradient><path d="M22 3H2C0.9 3 0 3.9 0 5v14c0 1.1 0.9 2 2 2h20c1.1 0 2-0.9 2-2V5C24 3.9 23.1 3 22 3z" style="fill:url(#SVGID_7_);"/></svg>